<?xml version="1.0" encoding="UTF-8"?>
<svg version="1.1" xmlns="http://www.w3.org/2000/svg" width="320" height="320">
<path d="M0 0 C2.49321328 2.47144856 4.92145602 4.99375335 7.33813477 7.54003906 C30.43989474 31.20608445 56.87574465 46.71933347 90.71313477 47.22753906 C113.94523194 47.24291437 137.46141908 39.46416605 155.71313477 24.97753906 C156.40294434 24.2845874 156.40294434 24.2845874 157.10668945 23.57763672 C158.80325135 21.88777856 160.5814888 20.35004371 162.40454102 18.79785156 C167.44779314 14.41251513 172.03810852 9.61752727 176.62524414 4.76269531 C184.16892053 -2.98086259 191.46616245 -7.10595043 202.33813477 -7.33496094 C211.97101283 -7.23503482 218.85602664 -4.63129169 225.88891602 1.97363281 C234.36102219 11.28025051 235.39672241 19.69767269 234.88793945 31.86816406 C233.89926765 43.79850532 222.20486637 52.63136951 214.27563477 60.47753906 C213.44870117 61.29996094 212.62176758 62.12238281 211.76977539 62.96972656 C209.75318517 64.97466019 207.7342824 66.97720159 205.71313477 68.97753906 C207.2387459 72.64234502 209.41778933 74.83480982 212.29125977 77.54003906 C213.20520508 78.42046875 214.11915039 79.30089844 215.06079102 80.20800781 C216.96931809 82.03532097 218.89040504 83.84645854 220.81860352 85.65332031 C228.56017869 93.15602501 235.35360251 101.56563538 235.54711914 112.82397461 C235.50554687 113.88998901 235.50554687 113.88998901 235.46313477 114.97753906 C235.43703125 116.1257312 235.43703125 116.1257312 235.41040039 117.29711914 C234.94385047 126.40153495 231.52070368 133.67587026 224.90063477 139.97753906 C216.80871164 146.23732865 208.90776297 148.04149532 198.71313477 147.97753906 C190.34028516 146.88721712 184.72082366 143.68154259 178.71313477 137.97753906 C178.05442383 137.35878906 177.39571289 136.74003906 176.71704102 136.10253906 C173.08176949 132.59161284 173.08176949 132.59161284 171.71313477 130.97753906 C171.71313477 130.31753906 171.71313477 129.65753906 171.71313477 128.97753906 C171.05313477 128.97753906 170.39313477 128.97753906 169.71313477 128.97753906 C168.08813477 127.60253906 168.08813477 127.60253906 166.71313477 125.97753906 C166.71313477 125.31753906 166.71313477 124.65753906 166.71313477 123.97753906 C165.06313477 123.31753906 163.41313477 122.65753906 161.71313477 121.97753906 C161.71313477 121.31753906 161.71313477 120.65753906 161.71313477 119.97753906 C161.05313477 119.97753906 160.39313477 119.97753906 159.71313477 119.97753906 C159.07375977 119.31753906 158.43438477 118.65753906 157.77563477 117.97753906 C146.22000705 106.15549918 129.58355935 98.34980673 113.33813477 95.91503906 C107.82262382 95.08702811 107.82262382 95.08702811 106.71313477 93.97753906 C105.84688477 93.97753906 104.98063477 93.97753906 104.08813477 93.97753906 C100.71313477 93.97753906 100.71313477 93.97753906 97.52563477 93.47753906 C87.05537499 92.10439024 76.78984529 92.90328839 66.71313477 95.97753906 C64.75549063 96.43880725 62.79708598 96.89685382 60.83813477 97.35253906 C55.44348775 98.70287202 50.66582544 100.4690334 45.71313477 102.97753906 C44.69219727 103.48285156 43.67125977 103.98816406 42.61938477 104.50878906 C35.26037417 108.29145806 28.93778849 112.54120497 22.71313477 117.97753906 C21.95000977 118.63109375 21.18688477 119.28464844 20.40063477 119.95800781 C16.4761576 123.39838006 12.71645455 126.9461769 9.09985352 130.70800781 C-1.13436244 141.33679595 -8.25512287 147.64519592 -23.66577148 148.17285156 C-32.86510534 147.67666311 -40.4878944 142.91083224 -46.82202148 136.39941406 C-50.45747919 132.20220924 -52.28686523 129.54188305 -52.28686523 123.97753906 C-52.94686523 123.64753906 -53.60686523 123.31753906 -54.28686523 122.97753906 C-53.6923322 105.12104704 -53.6923322 105.12104704 -50.28686523 96.97753906 C-49.62686523 96.97753906 -48.96686523 96.97753906 -48.28686523 96.97753906 C-47.94679443 96.14851074 -47.94679443 96.14851074 -47.59985352 95.30273438 C-45.89789544 92.28870523 -43.74067006 90.20773693 -41.27905273 87.77441406 C-40.79356964 87.29176086 -40.30808655 86.80910767 -39.80789185 86.31182861 C-38.26386657 84.77895344 -36.71301699 83.25319903 -35.16186523 81.72753906 C-34.11062515 80.68633545 -33.05983866 79.64467365 -32.00952148 78.60253906 C-29.4405352 76.05554442 -26.86538362 73.5148873 -24.28686523 70.97753906 C-26.25429977 67.46262394 -28.32574768 64.69901041 -31.19311523 61.87597656 C-31.9369043 61.13863281 -32.68069336 60.40128906 -33.44702148 59.64160156 C-34.21916992 58.88621094 -34.99131836 58.13082031 -35.78686523 57.35253906 C-36.55901367 56.58941406 -37.33116211 55.82628906 -38.12670898 55.04003906 C-39.55997938 53.6241567 -40.99529912 52.21034358 -42.43334961 50.79931641 C-43.04500977 50.19812988 -43.65666992 49.59694336 -44.28686523 48.97753906 C-44.83455566 48.44789551 -45.38224609 47.91825195 -45.9465332 47.37255859 C-47.66821605 45.58062858 -48.72720202 43.65790081 -49.91186523 41.47753906 C-50.54995117 40.31738281 -50.54995117 40.31738281 -51.20092773 39.13378906 C-54.82073136 31.94626532 -55.68475077 21.34593136 -53.22436523 13.65722656 C-51.75368343 10.90735798 -50.16482201 8.4645629 -48.28686523 5.97753906 C-47.81764648 5.30207031 -47.34842773 4.62660156 -46.86499023 3.93066406 C-41.46180523 -3.17239938 -33.88223115 -6.59115713 -25.18530273 -7.87011719 C-15.96723747 -8.35462466 -6.98613212 -6.17840488 0 0 Z " fill="#5476FF" transform="translate(69.286865234375,92.0224609375)"/>
<path d="M0 0 C1.08958008 -0.05510742 1.08958008 -0.05510742 2.20117188 -0.11132812 C12.40681646 -0.19112899 20.47354421 5.27480504 27.515625 12.1796875 C29.55934015 14.23950573 31.56256586 16.33528554 33.5625 18.4375 C34.61444543 19.51963085 35.66782431 20.60037014 36.72265625 21.6796875 C39.2692765 24.29150998 41.79617054 26.92144145 44.3125 29.5625 C47.71337686 28.09420008 49.90885061 26.19980996 52.5 23.5703125 C53.28117187 22.78269531 54.06234375 21.99507812 54.8671875 21.18359375 C55.67414063 20.35988281 56.48109375 19.53617188 57.3125 18.6875 C58.11945313 17.87152344 58.92640625 17.05554688 59.7578125 16.21484375 C61.26402072 14.69123709 62.76816177 13.16558202 64.26953125 11.63720703 C72.0966699 3.68847087 78.33428209 0.04855238 89.6875 -0.125 C99.08876413 -0.01871926 106.19636586 2.19324676 113.453125 8.390625 C121.28447474 16.48521339 122.74895041 25.3741421 123.0390625 36.2421875 C121.65337328 48.90940749 112.26378966 57.4990263 103.64672852 65.90063477 C101.62853616 67.87154668 99.63842868 69.86786369 97.65039062 71.86914062 C84.13318375 85.32726448 68.8527087 95.6903842 49.3125 97.5625 C38.94033269 97.50960327 28.74635309 95.99125419 19.3125 91.5625 C18.40757812 91.14484375 17.50265625 90.7271875 16.5703125 90.296875 C12.5043907 88.34051842 8.88429772 86.32752616 5.3125 83.5625 C4.3225 82.9025 3.3325 82.2425 2.3125 81.5625 C0.62252677 79.91947047 -1.03966394 78.24778688 -2.6875 76.5625 C-3.30753906 75.964375 -3.92757812 75.36625 -4.56640625 74.75 C-5.20449219 74.13125 -5.84257813 73.5125 -6.5 72.875 C-7.10457031 72.29363281 -7.70914063 71.71226563 -8.33203125 71.11328125 C-9.6875 69.5625 -9.6875 69.5625 -9.6875 67.5625 C-10.3475 67.5625 -11.0075 67.5625 -11.6875 67.5625 C-11.6875 66.9025 -11.6875 66.2425 -11.6875 65.5625 C-12.3475 65.5625 -13.0075 65.5625 -13.6875 65.5625 C-13.6875 64.9025 -13.6875 64.2425 -13.6875 63.5625 C-14.3475 63.5625 -15.0075 63.5625 -15.6875 63.5625 C-15.6875 62.9025 -15.6875 62.2425 -15.6875 61.5625 C-16.265 61.315 -16.8425 61.0675 -17.4375 60.8125 C-24.27005917 57.0166338 -29.24963674 48.84329342 -31.6875 41.5625 C-33.508069 31.11818313 -32.52571315 22.87104615 -27 13.8125 C-20.38753165 4.54849731 -11.2218243 0.02909721 0 0 Z " fill="#CADFFF" transform="translate(114.6875,15.4375)"/>
<path d="M0 0 C7.38621576 6.1993694 14.29406456 12.99027362 21.16088867 19.75585938 C22.26475563 20.8380243 23.37484885 21.91387334 24.4909668 22.98339844 C32.3242893 30.49514846 39.50792146 37.83992702 40.62890625 49.22265625 C40.42748922 60.86929955 38.6133676 69.66448297 30 78 C26.51612903 81 26.51612903 81 24 81 C23.67 81.66 23.34 82.32 23 83 C15.37084147 87.70195873 6.38946324 86.96288177 -2.1484375 85.4375 C-11.88885866 82.23516976 -18.51005864 74.07469724 -25.26757812 66.72998047 C-27.06168479 64.93840214 -28.94943282 63.48607926 -31 62 C-32.75 60.4375 -32.75 60.4375 -34 59 C-34 58.34 -34 57.68 -34 57 C-34.66 57 -35.32 57 -36 57 C-36 56.34 -36 55.68 -36 55 C-42.60840727 60.59224235 -48.65346337 66.61731521 -54.64453125 72.859375 C-64.13660578 82.5423322 -72.12632755 85.66810505 -85.58203125 86.19140625 C-94.47926924 86.14742678 -101.71974669 80.89247928 -108 75 C-109.51372321 72.60652991 -110.72501085 70.48477018 -111.875 67.9375 C-112.175271 67.28064209 -112.47554199 66.62378418 -112.78491211 65.94702148 C-115.36115437 59.90115672 -115.88785318 54.53344133 -115 48 C-114.90203125 47.26136719 -114.8040625 46.52273438 -114.703125 45.76171875 C-113.71375562 40.66646644 -111.30673911 35.98504457 -108 32 C-107.34 32 -106.68 32 -106 32 C-106 31.34 -106 30.68 -106 30 C-105.34 30 -104.68 30 -104 30 C-104 29.34 -104 28.68 -104 28 C-103.34 28 -102.68 28 -102 28 C-102 27.34 -102 26.68 -102 26 C-100.53564453 24.57006836 -100.53564453 24.57006836 -98.5078125 22.90234375 C-95.5062503 20.35266509 -92.70291959 17.73607404 -89.9921875 14.87890625 C-66.1351347 -10.21851805 -30.5805593 -21.30372297 0 0 Z " fill="#C0D9FF" transform="translate(197,219)"/>
<path d="M0 0 C3.94139078 1.66751148 6.7892812 4.22710649 10 7 C9.01 7.33 8.02 7.66 7 8 C6.34 7.67 5.68 7.34 5 7 C5 6.34 5 5.68 5 5 C4.34 5 3.68 5 3 5 C1.375 2.5 1.375 2.5 0 0 Z " fill="#6D5FFF" transform="translate(226,207)"/>
<path d="" fill="#98AEFF" transform="translate(0,0)"/>
</svg>
